<svg width="600" height="427" viewBox="0 0 600 427" fill="none" xmlns="http://www.w3.org/2000/svg">
<g clip-path="url(#clip0_2_23)">
<path d="M180.207 122.609L207.578 151.004H146.867L180.207 122.609Z" fill="#FBAF32"/>
<path d="M148.066 151.004H162.527L180.207 122.609L148.066 151.004Z" fill="#D57E28"/>
<path d="M77.9141 226.32L7 152.73H89.7852L77.9141 226.32Z" fill="#FBAF32"/>
<path d="M92.7344 152.73H68.1875L77.9141 226.32L92.7344 152.73Z" fill="#D57E28"/>
<path fill-rule="evenodd" clip-rule="evenodd" d="M409.004 183.527C415.652 183.527 421.996 183.527 428.648 183.527C428.648 190.594 428.648 198.91 428.648 205.977C432.492 205.977 449.125 205.977 453.289 205.977C453.289 210.133 453.441 214.293 453.441 218.449C448.871 218.449 433.219 218.449 428.648 218.449C428.648 233.109 429.121 250.414 429.121 263.727C429.121 264.805 429.977 265.703 430.52 266.629C432.457 269.934 437.52 269.969 443.301 269.594C443.922 275.047 443.922 277.852 444.391 282.844C421.695 289.379 409.004 276.141 409.004 265.066C409.004 252.285 409.004 191.012 409.004 183.527Z" fill="white"/>
<path fill-rule="evenodd" clip-rule="evenodd" d="M128.973 237.086C140.613 237.086 153.496 237.156 165.137 237.156C165.301 213.23 128.66 214.32 128.973 237.086ZM183.23 250.871C164.941 250.871 147.262 250.871 128.969 250.871C132.719 273.332 156.211 270.539 176.559 266.41C177.73 271.746 178.641 275.082 179.965 280.562C141.281 292.391 108.031 277.484 110.266 240.895C111.629 218.488 127.648 205.125 147.605 204.5C164.668 203.969 182.062 216.738 183.074 235.914C183.309 240.273 183.152 245.656 183.23 250.871Z" fill="white"/>
<path fill-rule="evenodd" clip-rule="evenodd" d="M260.879 283.297C254.223 283.297 248.977 283.297 242.324 283.297C242.324 268.813 242.48 250.602 242.48 236.695C242.48 230.594 236.266 218.965 227.355 220.637C219.871 222.039 209.742 227.184 208.805 238.563C208.18 251.973 208.336 270.215 208.336 283.297C201.687 283.297 197.047 283.297 190.395 283.297C190.395 257.523 190.395 231.75 190.395 205.977C196.629 205.977 202.258 206.137 208.492 206.137C208.492 209.461 208.492 213.57 208.492 216.895C214.988 212.57 225.625 201.605 244.039 205.047C255.398 208.832 260.523 220.039 260.523 234.074C260.523 249.465 260.879 267.906 260.879 283.297Z" fill="white"/>
<path fill-rule="evenodd" clip-rule="evenodd" d="M290.371 267.086C300.777 275.148 321.016 269.168 317.809 252.121C303.258 251.176 283.031 250.184 290.371 267.086ZM337.016 283.297C330.781 283.297 324.539 283.297 318.305 283.297C318.305 281.219 318.305 277.281 318.305 275.203C309.453 286.168 292.051 286.937 280.422 280.352C267.941 273.277 265.613 255.09 275.406 244.641C283.449 236.055 299.719 239.02 317.809 238.398C321.266 212.062 291.91 220.324 274.805 220.793C274.34 214.711 274.496 212.844 274.16 207.223C295.609 204.004 319.895 200.211 330.938 214.559C334.363 219.012 337.383 224.375 337.383 230.602C337.383 245.734 337.125 264.91 337.016 283.297Z" fill="white"/>
<path fill-rule="evenodd" clip-rule="evenodd" d="M405.359 207.07C404.891 212.062 403.797 216.582 402.82 220.941C374.02 213.617 360.242 230.387 361.859 247.145C363.355 262.66 378.074 275.047 401.926 267.098C403.016 270.684 404.734 275.672 405.359 279.879C374.965 293.867 345.199 276.207 342.961 248.379C340.391 216.375 367.805 196.535 405.359 207.07Z" fill="white"/>
<path fill-rule="evenodd" clip-rule="evenodd" d="M589.793 208.469C588.93 214.559 588.617 216.27 587.301 222.188C577.383 220.957 549.277 213.625 549.887 224.684C550.73 239.969 602.824 238.039 591.266 269.125C584.375 287.656 548.125 287.66 528.688 277.063C529.527 272.711 530.305 269.75 532.43 264.594C543.25 267.098 573.277 275.992 573.582 262.098C573.809 251.973 541.203 248.25 534.922 238.398C518.613 212.844 552.137 195.691 589.793 208.469Z" fill="white"/>
<path fill-rule="evenodd" clip-rule="evenodd" d="M451.051 205.977C457.703 205.977 463.785 205.977 470.434 205.977C470.434 220.324 470.125 240.473 470.125 254.625C470.125 261.262 474.078 266.383 479.734 267.086C492.418 268.656 501.824 261.168 502.398 248.074C502.949 235.402 502.762 219.426 502.711 205.977C509.359 205.977 514.766 205.977 521.418 205.977C521.418 231.75 521.574 257.523 521.574 283.297C515.336 283.297 509.258 283.297 503.023 283.297C503.023 279.973 503.023 274.164 503.023 270.836C496.625 280.973 476.98 290.637 461.859 280.352C454.219 275.148 451.707 265.938 451.098 254.938C450.27 240.023 451.051 222.191 451.051 205.977Z" fill="white"/>
<path d="M79.0391 22.0039L77.7617 226.383L180.207 122.609L79.0391 22.0039Z" fill="#FEC224"/>
</g>
<path d="M120.162 389V319.888H163.41V333.032H135.744V346.918H159.276V359.956H135.744V375.856H164.47V389H120.162ZM199.328 390.272C194.806 390.272 190.283 389.424 185.76 387.728C181.308 386.032 177.316 383.559 173.782 380.308L182.686 369.602C185.16 371.722 187.916 373.453 190.954 374.796C193.993 376.139 196.926 376.81 199.752 376.81C203.003 376.81 205.406 376.209 206.96 375.008C208.586 373.807 209.398 372.181 209.398 370.132C209.398 367.941 208.48 366.351 206.642 365.362C204.876 364.302 202.473 363.136 199.434 361.864L190.424 358.048C188.092 357.059 185.866 355.751 183.746 354.126C181.626 352.43 179.895 350.345 178.552 347.872C177.21 345.399 176.538 342.501 176.538 339.18C176.538 335.364 177.563 331.901 179.612 328.792C181.732 325.683 184.63 323.209 188.304 321.372C192.05 319.535 196.325 318.616 201.13 318.616C205.088 318.616 209.045 319.393 213.002 320.948C216.96 322.503 220.422 324.764 223.39 327.732L215.44 337.59C213.179 335.823 210.918 334.481 208.656 333.562C206.395 332.573 203.886 332.078 201.13 332.078C198.445 332.078 196.29 332.643 194.664 333.774C193.11 334.834 192.332 336.353 192.332 338.332C192.332 340.452 193.322 342.042 195.3 343.102C197.35 344.162 199.858 345.293 202.826 346.494L211.73 350.098C215.9 351.794 219.221 354.126 221.694 357.094C224.168 360.062 225.404 363.984 225.404 368.86C225.404 372.676 224.38 376.209 222.33 379.46C220.281 382.711 217.313 385.325 213.426 387.304C209.54 389.283 204.84 390.272 199.328 390.272ZM237.135 389V319.888H252.717V389H237.135Z" fill="white"/>
<defs>
<clipPath id="clip0_2_23">
<rect width="585.94" height="262.78" fill="white" transform="translate(7 22)"/>
</clipPath>
</defs>
</svg>
